<svg width="123" height="131" viewBox="0 0 123 131" fill="none" xmlns="http://www.w3.org/2000/svg">
<path d="M85.4944 4.65342C85.4955 3.41887 85.9897 2.23527 86.8683 1.36271C87.7468 0.490152 88.938 1.3359e-05 90.1799 0H90.1845C96.3493 0.0142287 102.403 1.63469 107.741 4.69982C113.079 7.76494 117.516 12.1676 120.609 17.4689C120.917 17.9986 121.117 18.5835 121.198 19.1902C121.278 19.7968 121.238 20.4133 121.079 21.0044C120.919 21.5954 120.645 22.1495 120.27 22.635C119.895 23.1205 119.428 23.5279 118.895 23.8338C118.362 24.1397 117.773 24.3383 117.163 24.418C116.553 24.4978 115.933 24.4572 115.338 24.2987C114.744 24.1402 114.186 23.8667 113.698 23.494C113.21 23.1213 112.8 22.6566 112.493 22.1265C110.224 18.2383 106.969 15.0092 103.053 12.7613C99.1375 10.5134 94.6973 9.32529 90.1753 9.31536C88.9327 9.31416 87.7414 8.82232 86.8636 7.94804C85.9857 7.07377 85.4932 5.88866 85.4944 4.65342ZM121.219 86.0301C118.578 95.816 113.078 104.604 105.414 111.283C97.7494 117.963 88.2653 122.233 78.16 123.556C68.0547 124.878 57.7818 123.193 48.6397 118.713C39.4977 114.233 31.8969 107.16 26.7981 98.3867L2.19894 56.0332C0.814767 53.6517 0.0594591 50.9607 0.00336959 48.2108C-0.0527199 45.461 0.592233 42.7418 1.87815 40.3065C3.16408 37.8712 5.04913 35.799 7.35773 34.283C9.66633 32.767 12.3234 31.8564 15.0813 31.6362L13.1172 28.2543C11.1653 24.8903 10.4853 20.9443 11.1997 17.1263C11.9141 13.3084 13.9759 9.86926 17.014 7.42793C20.0521 4.9866 23.8671 3.70338 27.7723 3.80921C31.6775 3.91505 35.4165 5.40299 38.3163 8.00525C39.8011 5.59648 41.8903 3.61275 44.379 2.24865C46.8677 0.884552 49.6703 0.186942 52.512 0.224252C55.3536 0.261562 58.1368 1.03251 60.5883 2.46147C63.0399 3.89043 65.0756 5.92832 66.4959 8.37524L76.6538 25.8648C78.2274 23.6029 80.3509 21.7733 82.8268 20.546C85.3026 19.3188 88.0505 18.7338 90.8148 18.8455C93.5791 18.9572 96.2702 19.7619 98.6377 21.1848C101.005 22.6078 102.972 24.6027 104.356 26.9841L116.069 47.1522C119.471 52.9721 121.678 59.405 122.562 66.0784C123.446 72.7518 122.989 79.5332 121.219 86.0301ZM107.954 51.8099L96.2405 31.6418C95.7797 30.8458 95.1656 30.148 94.4333 29.5882C93.701 29.0284 92.8649 28.6176 91.9727 28.3792C91.0806 28.1409 90.1499 28.0798 89.2339 28.1993C88.318 28.3188 87.4347 28.6166 86.6347 29.0758C85.8346 29.5349 85.1335 30.1463 84.5713 30.875C84.0092 31.6038 83.5971 32.4355 83.3586 33.3227C83.1201 34.2099 83.0599 35.1351 83.1814 36.0454C83.3029 36.9557 83.6037 37.8333 84.0667 38.628L89.9237 48.7123C90.0018 48.8469 90.0731 48.9853 90.1373 49.1269C90.1842 49.23 90.2225 49.3349 90.2614 49.4398C90.2754 49.4775 90.2926 49.5141 90.3055 49.552C90.3492 49.6806 90.3849 49.8105 90.417 49.9408C90.4207 49.9569 90.4264 49.9726 90.4304 49.9888C90.4616 50.1229 90.485 50.2577 90.5042 50.3927C90.5062 50.4073 90.5099 50.4217 90.5119 50.4363C90.5288 50.5653 90.538 50.6945 90.544 50.8236C90.5448 50.8462 90.5483 50.8687 90.5491 50.8913C90.5528 51.0102 90.5488 51.1286 90.5434 51.2469C90.542 51.2808 90.5434 51.3146 90.5411 51.3485C90.5337 51.4597 90.5185 51.5698 90.5031 51.6799C90.4974 51.7206 90.4954 51.7615 90.4885 51.8021C90.4665 51.9343 90.4367 52.065 90.4036 52.1947C90.399 52.212 90.3967 52.2296 90.3921 52.2468C90.3873 52.2645 90.3801 52.2813 90.3753 52.2989C90.3389 52.4275 90.2989 52.5551 90.2517 52.6802C90.2386 52.7148 90.2217 52.7476 90.208 52.7818C90.1645 52.889 90.1202 52.9959 90.069 53.0998C90.0564 53.1248 90.0415 53.1481 90.0286 53.1729C89.9712 53.2838 89.9117 53.3937 89.845 53.5002C89.8373 53.5125 89.8285 53.5238 89.8207 53.536C89.7467 53.6521 89.6686 53.7659 89.5839 53.8757L89.5736 53.8879C89.4841 54.0033 89.3889 54.1149 89.2879 54.2226L89.2785 54.2319C89.1778 54.3382 89.0723 54.4409 88.9605 54.5385C88.9422 54.5545 88.9219 54.5682 88.9033 54.5839C88.8061 54.6663 88.7068 54.7474 88.6013 54.8226C88.4748 54.9132 88.3439 54.9974 88.2089 55.0749C83.9041 57.5454 80.7628 61.6147 79.4762 66.3875C78.1895 71.1603 78.8629 76.2457 81.3482 80.525C81.9695 81.5947 82.1379 82.866 81.8163 84.0591C81.4948 85.2523 80.7096 86.2696 79.6334 86.8872C78.5573 87.5049 77.2784 87.6723 76.0781 87.3526C74.8779 87.0329 73.8545 86.2524 73.2331 85.1826C69.9122 79.4622 68.7355 72.7579 69.9116 66.2576C71.0877 59.7573 74.5406 53.8807 79.6586 49.669L75.9517 43.286L75.9502 43.2834L58.3809 13.0332C57.4488 11.4285 55.9137 10.2575 54.1132 9.77789C52.3126 9.29829 50.3942 9.54933 48.7798 10.4758C47.1655 11.4023 45.9875 12.9283 45.5051 14.7181C45.0226 16.5079 45.2751 18.415 46.2071 20.0197L61.4346 46.2388C62.0559 47.3086 62.2243 48.5799 61.9027 49.7731C61.581 50.9664 60.7957 51.9837 59.7195 52.6013C58.6433 53.219 57.3644 53.3863 56.164 53.0666C54.9637 52.7469 53.9403 51.9663 53.3189 50.8965L38.0909 24.6774L38.0818 24.661L33.406 16.6101C32.4732 15.007 30.9382 13.8376 29.1385 13.359C27.3388 12.8804 25.4215 13.1316 23.808 14.0576C22.1946 14.9835 21.017 16.5083 20.534 18.2969C20.051 20.0856 20.3021 21.9917 21.2323 23.5963L30.6016 39.728L30.6033 39.731L43.4886 61.9167C43.8237 62.4869 44.0323 63.1216 44.1005 63.7785C44.1688 64.4353 44.095 65.099 43.8841 65.7252C43.6733 66.3514 43.3302 66.9255 42.878 67.4092C42.4258 67.8929 41.8748 68.2749 41.2619 68.5296C41.2113 68.551 41.1604 68.5693 41.1095 68.5888C40.9802 68.6383 40.8499 68.6819 40.7186 68.7195C40.6662 68.7344 40.6145 68.7499 40.5618 68.763C40.3995 68.8037 40.235 68.8357 40.0691 68.8589C40.0545 68.8609 40.0399 68.8646 40.0253 68.8665C39.8446 68.8886 39.6627 68.9002 39.4805 68.9012C39.4657 68.9013 39.4505 68.9041 39.4356 68.9041C39.4048 68.9041 39.3744 68.8987 39.3436 68.8981C39.2014 68.8953 39.0601 68.8863 38.9194 68.8709C38.8691 68.8654 38.8191 68.8603 38.769 68.8531C38.6006 68.8297 38.4335 68.7972 38.2686 68.7558C38.2571 68.7529 38.2454 68.7513 38.2339 68.7483C38.0572 68.701 37.8834 68.6435 37.7135 68.5761C37.6697 68.5591 37.6277 68.5394 37.5845 68.5211C37.4552 68.4661 37.3286 68.4053 37.2047 68.3389C37.1601 68.315 37.1157 68.2919 37.0717 68.2666C36.9163 68.1776 36.7661 68.0799 36.6219 67.9739L36.6116 67.9669C36.463 67.8544 36.3214 67.7332 36.1875 67.6039C36.1523 67.57 36.1185 67.534 36.0842 67.4989C35.983 67.3959 35.8862 67.2876 35.7939 67.1741C35.7619 67.1347 35.7293 67.0961 35.6984 67.0554C35.58 66.9019 35.4713 66.7412 35.373 66.5743L22.4877 44.389C21.5549 42.7858 20.0199 41.6164 18.2201 41.1378C16.4203 40.6592 14.503 40.9106 12.8895 41.8366C11.2761 42.7627 10.0985 44.2876 9.6157 46.0764C9.13286 47.8651 9.38423 49.7712 10.3146 51.3758L34.9137 93.729C40.5072 103.354 49.7176 110.377 60.5194 113.253C71.3212 116.129 82.8297 114.622 92.514 109.064C102.198 103.506 109.265 94.3521 112.161 83.6152C115.056 72.8783 113.543 61.4379 107.954 51.8099ZM37.2639 122.514C29.8843 117.435 23.7367 110.784 19.2687 103.046C18.961 102.516 18.5514 102.052 18.0633 101.68C17.5751 101.307 17.018 101.034 16.4237 100.876C15.8294 100.718 15.2095 100.677 14.5995 100.757C13.9895 100.837 13.4012 101.035 12.8684 101.341C12.3356 101.647 11.8685 102.054 11.494 102.539C11.1194 103.025 10.8447 103.579 10.6855 104.169C10.5262 104.76 10.4856 105.376 10.566 105.983C10.6463 106.589 10.846 107.174 11.1536 107.703C16.3108 116.634 23.4065 124.309 31.924 130.169C32.4297 130.518 32.9995 130.764 33.6009 130.894C34.2024 131.024 34.8237 131.035 35.4293 130.926C36.0349 130.817 36.6131 130.59 37.1306 130.259C37.6482 129.928 38.0951 129.499 38.4458 128.996C38.7965 128.494 39.0442 127.927 39.1746 127.329C39.305 126.731 39.3156 126.114 39.2058 125.512C39.0961 124.91 38.8681 124.335 38.5349 123.821C38.2017 123.306 37.7698 122.862 37.2639 122.514Z" fill="#B2CFFF"/>
</svg>
