<svg width="70" height="25" viewBox="0 0 70 25" fill="none" xmlns="http://www.w3.org/2000/svg">
<rect width="70" height="25" rx="7" fill="#55B6FF"/>
<path d="M8.7 15.29V9.69C8.7 9.49667 8.76667 9.33333 8.9 9.2C9.04 9.06 9.20667 8.99 9.4 8.99C9.59333 8.99 9.76 9.06 9.9 9.2C10.0333 9.33333 10.1 9.49667 10.1 9.69V13.4L13.67 9.24C13.81 9.07333 13.9867 8.99 14.2 8.99C14.2867 8.99 14.3667 9.00667 14.44 9.04C14.7467 9.14667 14.9 9.36333 14.9 9.69V15.29C14.9 15.4833 14.8333 15.65 14.7 15.79C14.56 15.9233 14.3933 15.99 14.2 15.99C14.0067 15.99 13.84 15.9233 13.7 15.79C13.5667 15.65 13.5 15.4833 13.5 15.29V11.58L9.93 15.75C9.72333 15.9967 9.46667 16.0633 9.16 15.95C8.85333 15.8367 8.7 15.6167 8.7 15.29ZM17.6977 12.6H19.7977C20.091 12.6 20.351 12.4933 20.5777 12.28C20.791 12.0533 20.8977 11.7933 20.8977 11.5C20.8977 11.1933 20.791 10.9333 20.5777 10.72C20.351 10.5067 20.091 10.4 19.7977 10.4H17.6977V12.6ZM16.2977 9.7C16.2977 9.50667 16.3677 9.34 16.5077 9.2C16.641 9.06667 16.8043 9 16.9977 9H19.7977C20.491 9 21.081 9.24333 21.5677 9.73C22.0543 10.2167 22.2977 10.8067 22.2977 11.5C22.2977 12.1933 22.0543 12.7833 21.5677 13.27C21.081 13.7567 20.491 14 19.7977 14H17.6977V15.3C17.6977 15.4933 17.631 15.6567 17.4977 15.79C17.3577 15.93 17.191 16 16.9977 16C16.8043 16 16.641 15.93 16.5077 15.79C16.3677 15.6567 16.2977 15.4933 16.2977 15.3V9.7ZM23.2996 15.29V9.69C23.2996 9.49667 23.3663 9.33333 23.4996 9.2C23.6396 9.06 23.8063 8.99 23.9996 8.99C24.1929 8.99 24.3596 9.06 24.4996 9.2C24.6329 9.33333 24.6996 9.49667 24.6996 9.69V13.4L28.2696 9.24C28.4096 9.07333 28.5863 8.99 28.7996 8.99C28.8863 8.99 28.9663 9.00667 29.0396 9.04C29.3463 9.14667 29.4996 9.36333 29.4996 9.69V15.29C29.4996 15.4833 29.4329 15.65 29.2996 15.79C29.1596 15.9233 28.9929 15.99 28.7996 15.99C28.6063 15.99 28.4396 15.9233 28.2996 15.79C28.1663 15.65 28.0996 15.4833 28.0996 15.29V11.58L24.5296 15.75C24.3229 15.9967 24.0663 16.0633 23.7596 15.95C23.4529 15.8367 23.2996 15.6167 23.2996 15.29ZM32.6973 10.4H30.9973C30.8039 10.4 30.6373 10.3333 30.4973 10.2C30.3639 10.06 30.2973 9.89333 30.2973 9.7C30.2973 9.50667 30.3639 9.34 30.4973 9.2C30.6373 9.06667 30.8039 9 30.9973 9H35.7973C35.9906 9 36.1573 9.06667 36.2973 9.2C36.4306 9.34 36.4973 9.50667 36.4973 9.7C36.4973 9.89333 36.4306 10.06 36.2973 10.2C36.1573 10.3333 35.9906 10.4 35.7973 10.4H34.0973V15.3C34.0973 15.4933 34.0306 15.6567 33.8973 15.79C33.7573 15.93 33.5906 16 33.3973 16C33.2039 16 33.0406 15.93 32.9073 15.79C32.7673 15.6567 32.6973 15.4933 32.6973 15.3V10.4ZM37.7938 11.8H40.1938C40.3871 11.8 40.5538 11.8667 40.6938 12C40.8271 12.14 40.8938 12.3067 40.8938 12.5C40.8938 12.6933 40.8271 12.8567 40.6938 12.99C40.5538 13.13 40.3871 13.2 40.1938 13.2H37.7938C37.6004 13.2 37.4338 13.13 37.2938 12.99C37.1604 12.8567 37.0938 12.6933 37.0938 12.5C37.0938 12.3067 37.1604 12.14 37.2938 12C37.4338 11.8667 37.6004 11.8 37.7938 11.8ZM43.4984 12.6H45.5984C45.8918 12.6 46.1518 12.4933 46.3784 12.28C46.5918 12.0533 46.6984 11.7933 46.6984 11.5C46.6984 11.1933 46.5918 10.9333 46.3784 10.72C46.1518 10.5067 45.8918 10.4 45.5984 10.4H43.4984V12.6ZM42.0984 9.7C42.0984 9.50667 42.1684 9.34 42.3084 9.2C42.4418 9.06667 42.6051 9 42.7984 9H45.5984C46.2918 9 46.8818 9.24333 47.3684 9.73C47.8551 10.2167 48.0984 10.8067 48.0984 11.5C48.0984 12.1933 47.8551 12.7833 47.3684 13.27C46.8818 13.7567 46.2918 14 45.5984 14H43.4984V15.3C43.4984 15.4933 43.4318 15.6567 43.2984 15.79C43.1584 15.93 42.9918 16 42.7984 16C42.6051 16 42.4418 15.93 42.3084 15.79C42.1684 15.6567 42.0984 15.4933 42.0984 15.3V9.7ZM50.9004 10.4H49.2004C49.0071 10.4 48.8404 10.3333 48.7004 10.2C48.5671 10.06 48.5004 9.89333 48.5004 9.7C48.5004 9.50667 48.5671 9.34 48.7004 9.2C48.8404 9.06667 49.0071 9 49.2004 9H54.0004C54.1937 9 54.3604 9.06667 54.5004 9.2C54.6337 9.34 54.7004 9.50667 54.7004 9.7C54.7004 9.89333 54.6337 10.06 54.5004 10.2C54.3604 10.3333 54.1937 10.4 54.0004 10.4H52.3004V15.3C52.3004 15.4933 52.2337 15.6567 52.1004 15.79C51.9604 15.93 51.7937 16 51.6004 16C51.4071 16 51.2437 15.93 51.1104 15.79C50.9704 15.6567 50.9004 15.4933 50.9004 15.3V10.4ZM59.1965 11.05V13.94C59.6632 13.8733 60.0398 13.7467 60.3265 13.56C60.7065 13.3067 60.8965 12.9533 60.8965 12.5C60.8965 12.0467 60.7065 11.6933 60.3265 11.44C60.0465 11.2533 59.6698 11.1233 59.1965 11.05ZM56.6665 11.44C56.2865 11.6933 56.0965 12.0467 56.0965 12.5C56.0965 12.9533 56.2865 13.3067 56.6665 13.56C56.9465 13.7467 57.3232 13.8733 57.7965 13.94V11.05C57.3232 11.1233 56.9465 11.2533 56.6665 11.44ZM59.1965 9.5V9.64C60.1498 9.74667 60.9032 10.0533 61.4565 10.56C62.0165 11.0667 62.2965 11.7133 62.2965 12.5C62.2965 13.2867 62.0165 13.9333 61.4565 14.44C60.9032 14.9467 60.1498 15.25 59.1965 15.35V15.5C59.1965 15.6933 59.1298 15.8567 58.9965 15.99C58.8565 16.13 58.6898 16.2 58.4965 16.2C58.3032 16.2 58.1365 16.13 57.9965 15.99C57.8632 15.8567 57.7965 15.6933 57.7965 15.5V15.35C56.8432 15.25 56.0898 14.9467 55.5365 14.44C54.9765 13.9333 54.6965 13.2867 54.6965 12.5C54.6965 11.7133 54.9765 11.0667 55.5365 10.56C56.0898 10.0533 56.8432 9.74667 57.7965 9.64V9.5C57.7965 9.30667 57.8632 9.14 57.9965 9C58.1365 8.86667 58.3032 8.8 58.4965 8.8C58.6898 8.8 58.8565 8.86667 58.9965 9C59.1298 9.14 59.1965 9.30667 59.1965 9.5Z" fill="white"/>
</svg>
